MusicDataBoss6:
MusicDataBoss6_Square2:
	note_type 7, QUARTER_TRIPLET
; FRAME 2
	note D_, 1
	rest
	note D_, 2
	note C#, 1
	rest
	note C#, 2
	note A_, 1
	note_type 6, HALF_TRIPLET
	note F#, 1
	note_type 6, QUARTER_TRIPLET
	note C#, 2
	note A_, 1
	note F#, 1
	note E_, 1
	rest
	note F#, 1
	rest
	sound_ret

MusicDataBoss6_Square1:
	note_type 1, EIGHTH
; FRAME 2
	note F#, 4
	rest
	note_type 1, QUARTER_TRIPLET
	note G#, 4
	rest
	note E_, 4
	rest
	note_type 1, WHOLE
	note F#, 4
	rest
	rest
	rest
	rest
	rest
	rest
	rest

MusicDataBoss6_Triangle:
	note_type 1, QUARTER_TRIPLET
; FRAME 2
	note C#, 4
	rest
	note F#, 4
	note B_, 3
	rest
	note F#, 3
	note A_, 3
	note_type 1, QUARTER
	note C#, 4
	note_type 1, QUARTER_TRIPLET
	note F#, 3
	note A_, 3
	note G#, 3
	note C#, 4
	note A_, 3
	note C#, 4

MusicDataBoss6_Noise:
	note_type 1, QUARTER_TRIPLET
	drum_note Noise_OpenHihat
	drum_rest
	drum_note Noise_ClosedHihat
	drum_note Noise_ClosedHihat
	drum_note Noise_OpenHihat
	drum_note Noise_ClosedHihat
	drum_note Noise_ClosedHihat
	drum_note Noise_OpenHihat
	drum_note Noise_ClosedHihat
	drum_note Noise_OpenHihat
	drum_note Noise_ClosedHihat
	drum_note Noise_ClosedHihat
	drum_note Noise_OpenHihat
	drum_rest
	drum_note Noise_ClosedHihat
	drum_note Noise_ClosedHihat
