MusicDataBoss5:
MusicDataBoss5_Square2:
	note_type 7, QUARTER_TRIPLET
; FRAME 1
	note B_, 1
	rest
	note D_, 2
	note B_, 1
	note B_, 1
	note D_, 2
	note B_, 1
	note C#, 1
	rest
	note E_, 2
	note C#, 2
	note C#, 1
	note C#, 2
	rest
	note F_, 1
	rest
	sound_ret

MusicDataBoss5_Square1:
	note_type 1, EIGHTH
; FRAME 1
	note C#, 4
	rest
	note_type 1, QUARTER_TRIPLET
	note F#, 3
	rest
	note G#, 3
	rest
	note A_, 3
	note G#, 3
	rest
	note E_, 3
	note_type 1, WHOLE
	note C#, 3
	rest
	rest
	rest

MusicDataBoss5_Triangle:
	note_type 1, QUARTER_TRIPLET
; FRAME 1
	note B_, 2
	note D_, 3
	note A_, 3
	note B_, 2
	note D_, 3
	note A_, 3
	note F#, 3
	note C#, 3
	note E_, 3
	note B_, 3
	note E_, 3
	note G#, 3
	note B_, 3
	rest
	note A_, 3
	rest

MusicDataBoss5_Noise:
	note_type 1, QUARTER_TRIPLET
	drum_note Noise_OpenHihat
	drum_rest
	drum_note Noise_ClosedHihat
	drum_note Noise_ClosedHihat
	drum_note Noise_OpenHihat
	drum_note Noise_ClosedHihat
	drum_note Noise_ClosedHihat
	drum_note Noise_OpenHihat
	drum_note Noise_ClosedHihat
	drum_note Noise_OpenHihat
	drum_note Noise_ClosedHihat
	drum_note Noise_ClosedHihat
	drum_note Noise_OpenHihat
	drum_rest
	drum_note Noise_ClosedHihat
	drum_note Noise_ClosedHihat
