MusicDataBoss1:
MusicDataBoss1_Square2:
	note_type 7, QUARTER_TRIPLET
; FRAME 0
	note F#, 1
	rest
	note A_, 2
	note F#, 2
	note F#, 1
	note A_, 2
	note F#, 2
	note G_, 1
	rest
	note A_, 2
	note G_, 2
	note G_, 1
	note A_, 2
	rest
	note G_, 1
	rest
	sound_ret

MusicDataBoss1_Square1:
	note_type 1, QUARTER_TRIPLET
; FRAME 0
	rest
	rest
	note B_, 2
	rest
	rest
	note B_, 2
	rest
	rest
	rest
	note B_, 2
	rest
	rest
	note B_, 2
	rest
	note C#, 3
	rest

MusicDataBoss1_Triangle:
	note_type 1, QUARTER_TRIPLET
; FRAME 0
	note F#, 3
	note A_, 3
	note E_, 4
	note A_, 3
	note F#, 4
	note E_, 4
	note F#, 3
	note G_, 3
	note B_, 3
	note E_, 4
	note B_, 3
	note G_, 3
	note E_, 4
	rest
	note F#, 4
	rest

MusicDataBoss1_Noise:
	note_type 1, QUARTER_TRIPLET
	drum_note Noise_OpenHihat
	drum_rest
	drum_note Noise_ClosedHihat
	drum_note Noise_ClosedHihat
	drum_note Noise_OpenHihat
	drum_note Noise_ClosedHihat
	drum_note Noise_ClosedHihat
	drum_note Noise_OpenHihat
	drum_note Noise_ClosedHihat
	drum_note Noise_OpenHihat
	drum_note Noise_ClosedHihat
	drum_note Noise_ClosedHihat
	drum_note Noise_OpenHihat
	drum_rest
	drum_note Noise_ClosedHihat
	drum_note Noise_ClosedHihat
