MusicDataBoss3:
MusicDataBoss3_Square2:
	note_type 7, QUARTER_TRIPLET
; FRAME 2
	note D_, 1
	rest
	note D_, 2
	note C#, 1
	rest
	note C#, 2
	note A_, 1
	note_type 6, HALF_TRIPLET
	note F#, 1
	note_type 6, QUARTER_TRIPLET
	note C#, 2
	note A_, 1
	note F#, 1
	note E_, 1
	rest
	note F#, 1
	rest
	sound_ret

MusicDataBoss3_Square1:
	note_type 1, QUARTER_TRIPLET
; FRAME 2
	note A_, 2
	rest
	rest
	note G#, 2
	rest
	rest
	rest
	note_type 1, QUARTER
	note A_, 2
	note_type 1, QUARTER_TRIPLET
	rest
	rest
	note E_, 3
	rest
	note F#, 3
	rest

MusicDataBoss3_Triangle:
	note_type 1, QUARTER_TRIPLET
; FRAME 2
	note C#, 4
	rest
	note F#, 4
	note B_, 3
	rest
	note F#, 3
	note A_, 3
	note_type 1, QUARTER
	note C#, 4
	note_type 1, QUARTER_TRIPLET
	note F#, 3
	note A_, 3
	note G#, 3
	note C#, 4
	note A_, 3
	note C#, 4

MusicDataBoss3_Noise:
	note_type 1, QUARTER_TRIPLET
	drum_note Noise_OpenHihat
	drum_rest
	drum_note Noise_ClosedHihat
	drum_note Noise_ClosedHihat
	drum_note Noise_OpenHihat
	drum_note Noise_ClosedHihat
	drum_note Noise_ClosedHihat
	drum_note Noise_OpenHihat
	drum_note Noise_ClosedHihat
	drum_note Noise_OpenHihat
	drum_note Noise_ClosedHihat
	drum_note Noise_ClosedHihat
	drum_note Noise_OpenHihat
	drum_rest
	drum_note Noise_ClosedHihat
	drum_note Noise_ClosedHihat
