MusicDataBoss10:
MusicDataBoss10_Square2:
	note_type 7, QUARTER_TRIPLET
; FRAME 2
	note D_, 2
	rest
	note A_, 1
	note D_, 1
	rest
	note F#, 1
	note A_, 1
	note F#, 1
	note C#, 2
	rest
	note G#, 1
	rest
	note C#, 1
	rest
	note C#, 2
	rest
	sound_ret

MusicDataBoss10_Square1:
	note_type 5, QUARTER_TRIPLET
; FRAME 2
	note A_, 3
	rest
	rest
	note B_, 3
	rest
	note D_, 4
	rest
	note_type 5, WHOLE
	note C#, 4
	rest
	rest
	rest
	rest
	rest
	rest
	rest

MusicDataBoss10_Triangle:
	note_type 1, QUARTER_TRIPLET
; FRAME 2
	note G_, 2
	note F#, 3
	note A_, 3
	note D_, 4
	note D_, 3
	note F#, 3
	note A_, 3
	note D_, 4
	note C#, 3
	note F_, 3
	note A_, 3
	note C#, 4
	note C#, 3
	note F_, 3
	note G#, 3
	note C#, 4

MusicDataBoss10_Noise:
	note_type 1, QUARTER_TRIPLET
	drum_note Noise_OpenHihat
	drum_rest
	drum_note Noise_ClosedHihat
	drum_note Noise_ClosedHihat
	drum_note Noise_OpenHihat
	drum_note Noise_ClosedHihat
	drum_note Noise_ClosedHihat
	drum_note Noise_OpenHihat
	drum_note Noise_OpenHihat
	drum_note Noise_ClosedHihat
	drum_note Noise_ClosedHihat
	drum_note Noise_OpenHihat
	drum_note Noise_ClosedHihat
	drum_note Noise_ClosedHihat
	drum_note Noise_OpenHihat
	drum_note Noise_ClosedHihat
