MusicDataBoss17:
MusicDataBoss17_Square2:
	note_type 6, QUARTER_TRIPLET
; FRAME 2
	rest
	note D_, 1
	rest
	note D_, 2
	note C#, 1
	rest
	note C#, 2
	note A_, 1
	note_type 6, HALF_TRIPLET
	note F#, 1
	note_type 6, QUARTER_TRIPLET
	note C#, 2
	note A_, 1
	note F#, 1
	note E_, 1
	rest
	note F#, 1
	rest
	sound_ret

MusicDataBoss17_Square1:
	note_type 4, HALF
; FRAME 2
	note C#, 4
	note_type 6, QUARTER_TRIPLET
	rest
	rest
	note_type 6, HALF_TRIPLET
	note F#, 3
	note F#, 3
	note F#, 3
	note_type 6, QUARTER_TRIPLET
	note F#, 4
	note F#, 3
	note F#, 4

MusicDataBoss17_Triangle:
	note_type 1, QUARTER_TRIPLET
; FRAME 2
	rest
	note C#, 4
	rest
	note F#, 4
	note B_, 3
	rest
	note F#, 3
	note A_, 3
	note_type 1, QUARTER
	note C#, 4
	note_type 1, QUARTER_TRIPLET
	note F#, 3
	note A_, 3
	note G#, 3
	note C#, 4
	note A_, 3
	note C#, 4

MusicDataBoss17_Noise:
	note_type 1, QUARTER_TRIPLET
	drum_note Noise_ClosedHihat
	drum_note Noise_OpenHihat
	drum_rest
	drum_note Noise_ClosedHihat
	drum_note Noise_ClosedHihat
	drum_note Noise_OpenHihat
	drum_note Noise_ClosedHihat
	drum_note Noise_ClosedHihat
	drum_note Noise_OpenHihat
	drum_note Noise_ClosedHihat
	drum_note Noise_OpenHihat
	drum_note Noise_ClosedHihat
	drum_note Noise_ClosedHihat
	drum_note Noise_OpenHihat
	drum_rest
	drum_note Noise_ClosedHihat
	drum_note Noise_ClosedHihat
