MusicDataBoss16:
MusicDataBoss16_Square2:
	note_type 6, QUARTER_TRIPLET
; FRAME 2
	rest
	note F#, 1
	rest
	note A_, 2
	note F#, 2
	note F#, 1
	note A_, 2
	note F#, 2
	note G_, 1
	rest
	note A_, 2
	note G_, 2
	note G_, 1
	note A_, 2
	rest
	note G_, 1
	sound_ret

MusicDataBoss16_Square1:
	note_type 4, QUARTER
; FRAME 2
	note C#, 4
	note_type 6, QUARTER_TRIPLET
	rest
	rest
	note F#, 4
	rest
	note C#, 4
	rest
	note B_, 3
	note_type 6, SIXTEENTH
	note C#, 4
	note B_, 3
	note_type 6, QUARTER_TRIPLET
	note A_, 3
	rest
	note_type 4, HALF_TRIPLET
	note B_, 3
	note_type 6, QUARTER_TRIPLET
	note A_, 3
	rest

MusicDataBoss16_Triangle:
	note_type 1, QUARTER_TRIPLET
; FRAME 2
	rest
	note F#, 3
	note A_, 3
	note E_, 4
	note A_, 3
	note F#, 3
	note E_, 4
	note F#, 3
	note G_, 3
	note B_, 3
	note E_, 4
	note B_, 3
	note G_, 3
	note E_, 4
	rest
	note F#, 4

MusicDataBoss16_Noise:
	note_type 1, QUARTER_TRIPLET
	drum_note Noise_ClosedHihat
	drum_note Noise_OpenHihat
	drum_rest
	drum_note Noise_ClosedHihat
	drum_note Noise_ClosedHihat
	drum_note Noise_OpenHihat
	drum_note Noise_ClosedHihat
	drum_note Noise_ClosedHihat
	drum_note Noise_OpenHihat
	drum_note Noise_ClosedHihat
	drum_note Noise_OpenHihat
	drum_note Noise_ClosedHihat
	drum_note Noise_ClosedHihat
	drum_note Noise_OpenHihat
	drum_rest
	drum_note Noise_ClosedHihat
