MusicDataBoss8:
MusicDataBoss8_Square2:
	note_type 7, QUARTER_TRIPLET
; FRAME 2
	note G_, 1
	rest
	note G_, 2
	note D_, 2
	rest
	note G_, 1
	note G_, 2
	rest
	note F#, 1
	rest
	note C#, 2
	note F#, 1
	rest
	rest
	note C#, 2
	rest
	sound_ret

MusicDataBoss8_Square1:
	note_type 5, QUARTER_TRIPLET
; FRAME 2
	rest
	rest
	rest
	note F#, 4
	note E_, 4
	note D_, 4
	note C#, 4
	note B_, 3
	note C#, 4
	rest
	rest
	note_type 5, HALF
	note G#, 4
	rest
	rest
	rest
	rest

MusicDataBoss8_Triangle:
	note_type 1, QUARTER_TRIPLET
; FRAME 2
	note G_, 2
	note G_, 3
	note B_, 3
	note D_, 4
	note D_, 3
	note G_, 3
	note B_, 3
	note D_, 4
	note C#, 3
	note F#, 3
	note A_, 3
	note C#, 4
	note C#, 3
	note F#, 3
	note A_, 3
	note C#, 4

MusicDataBoss8_Noise:
	note_type 1, QUARTER_TRIPLET
	drum_note Noise_OpenHihat
	drum_rest
	drum_note Noise_ClosedHihat
	drum_note Noise_ClosedHihat
	drum_note Noise_OpenHihat
	drum_note Noise_ClosedHihat
	drum_note Noise_ClosedHihat
	drum_note Noise_OpenHihat
	drum_note Noise_OpenHihat
	drum_note Noise_ClosedHihat
	drum_note Noise_ClosedHihat
	drum_note Noise_OpenHihat
	drum_note Noise_ClosedHihat
	drum_note Noise_ClosedHihat
	drum_note Noise_OpenHihat
	drum_note Noise_ClosedHihat
